<svg version="1.1" xmlns="http://www.w3.org/2000/svg" xmlns:xlink="http://www.w3.org/1999/xlink" x="0px" y="0px" viewBox="0 0 1000 1000" enable-background="new 0 0 1000 1000" xml:space="preserve">
<g><g><path d="M208.3,126.7H45c-19.3,0-35,15.7-35,35v140c0,6.4,5.2,11.7,11.7,11.7s11.7-5.2,11.7-11.7v-140c0-6.4,5.3-11.7,11.7-11.7h163.3c6.4,0,11.7-5.2,11.7-11.7S214.8,126.7,208.3,126.7z M955,126.7H791.7c-6.4,0-11.7,5.2-11.7,11.7s5.2,11.7,11.7,11.7H955c6.4,0,11.7,5.2,11.7,11.7v140c0,6.4,5.2,11.7,11.7,11.7c6.4,0,11.7-5.2,11.7-11.7v-140C990,142.4,974.3,126.7,955,126.7z M978.3,686.7c-6.4,0-11.7,5.2-11.7,11.7v140c0,6.4-5.3,11.7-11.7,11.7H791.7c-6.4,0-11.7,5.2-11.7,11.7s5.2,11.7,11.7,11.7H955c19.3,0,35-15.7,35-35v-140C990,691.9,984.8,686.7,978.3,686.7z M21.7,686.7c-6.4,0-11.7,5.2-11.7,11.7v140c0,19.3,15.7,35,35,35h163.3c6.4,0,11.7-5.2,11.7-11.7s-5.2-11.7-11.7-11.7H45c-6.4,0-11.7-5.2-11.7-11.7v-140C33.3,691.9,28.1,686.7,21.7,686.7z M558.3,570c6.4,0,11.7-5.2,11.7-11.7V441.7c0-6.4-5.2-11.7-11.7-11.7H441.7c-6.4,0-11.7,5.2-11.7,11.7v116.7c0,6.4,5.2,11.7,11.7,11.7H558.3z M453.3,453.3h93.3v93.3h-93.3V453.3z" fill="#FFFFFF"/></g></g>
</svg>